<?xml version="1.0" encoding="UTF-8" standalone="no"?>
<svg width="10px" height="12px" viewBox="0 0 10 12" version="1.1" xmlns="http://www.w3.org/2000/svg" xmlns:xlink="http://www.w3.org/1999/xlink" xmlns:sketch="http://www.bohemiancoding.com/sketch/ns">
    <!-- Generator: Sketch 3.5.1 (25234) - http://www.bohemiancoding.com/sketch -->
    <title>branch</title>
    <desc>Created with Sketch.</desc>
    <defs></defs>
    <g id="Page-1" stroke="none" stroke-width="1" fill="none" fill-rule="evenodd" sketch:type="MSPage">
        <g id="colors" sketch:type="MSArtboardGroup" transform="translate(-4.000000, -597.000000)" fill="#7D7D92">
            <path d="M13.2857143,605.055246 L13.2857143,600.571429 C13.2857143,598.422991 11.1428571,598.428571 11.1428571,598.428571 L10.4285714,598.428571 L10.4285714,597 L8.28571429,599.142857 L10.4285714,601.285714 L10.4285714,599.857143 L11.1428571,599.857143 C11.7727455,599.857143 11.8571429,600.571429 11.8571429,600.571429 L11.8571429,605.055246 C11.4316406,605.302879 11.1428571,605.756975 11.1428571,606.285714 C11.1428571,607.07394 11.7832031,607.714286 12.5714286,607.714286 C13.359654,607.714286 14,607.07394 14,606.285714 C14,605.758371 13.7112165,605.302879 13.2857143,605.055246 L13.2857143,605.055246 Z M12.5714286,607 C12.1773214,607 11.8571429,606.680525 11.8571429,606.285714 C11.8571429,605.891607 12.1773214,605.571429 12.5714286,605.571429 C12.9662388,605.571429 13.2857143,605.891607 13.2857143,606.285714 C13.2857143,606.680525 12.9662388,607 12.5714286,607 L12.5714286,607 Z M4.71428571,600.522254 L4.71428571,605.005725 C4.71428571,607.154163 6.85714286,607.148583 6.85714286,607.148583 L7.57142857,607.148583 L7.57142857,608.577154 L9.71428571,606.434297 L7.57142857,604.29144 L7.57142857,605.720011 L6.85714286,605.720011 C6.22725446,605.720011 6.14285714,605.005725 6.14285714,605.005725 L6.14285714,600.522254 C6.56870536,600.274275 6.85714286,599.820179 6.85714286,599.29144 C6.85714286,598.502868 6.21714286,597.862868 5.42857143,597.862868 C4.64,597.862868 4,598.502868 4,599.29144 C4,599.819129 4.2884375,600.274275 4.71428571,600.522254 L4.71428571,600.522254 Z M5.42857143,600.035714 C5.03446429,600.035714 4.71428571,599.716585 4.71428571,599.321429 C4.71428571,598.927321 5.03446429,598.607143 5.42857143,598.607143 C5.82372768,598.607143 6.14285714,598.927321 6.14285714,599.321429 C6.14285714,599.716585 5.82372768,600.035714 5.42857143,600.035714 L5.42857143,600.035714 Z" id="branch" sketch:type="MSShapeGroup"></path>
        </g>
    </g>
</svg>