<?xml version="1.0" encoding="UTF-8" standalone="no"?>
<svg width="11px" height="12px" viewBox="0 0 11 12" version="1.1" xmlns="http://www.w3.org/2000/svg" xmlns:xlink="http://www.w3.org/1999/xlink" xmlns:sketch="http://www.bohemiancoding.com/sketch/ns">
    <!-- Generator: Sketch 3.5.1 (25234) - http://www.bohemiancoding.com/sketch -->
    <title>forks</title>
    <desc>Created with Sketch.</desc>
    <defs></defs>
    <g id="Page-1" stroke="none" stroke-width="1" fill="none" fill-rule="evenodd" sketch:type="MSPage">
        <g id="colors" sketch:type="MSArtboardGroup" transform="translate(-44.000000, -597.000000)" fill="#7D7D92">
            <path d="M52.5714286,602.142857 C51.9335938,602.142857 51.3844866,602.49525 51.0898438,603.012134 C51.0128348,603.006696 50.9375,603 50.8571429,603 C49.1018482,603 47.4360982,601.662804 46.8284107,600.007527 C47.1937813,599.693223 47.4285714,599.232844 47.4285714,598.714286 C47.4285714,597.768 46.6605714,597 45.7142857,597 C44.768,597 44,597.768 44,598.714286 C44,599.346683 44.346125,599.893688 44.8571429,600.191263 L44.8571429,605.809152 C44.346125,606.106312 44,606.652902 44,607.285714 C44,608.231585 44.768,609 45.7142857,609 C46.6605714,609 47.4285714,608.231585 47.4285714,607.285714 C47.4285714,606.652902 47.0824464,606.106312 46.5714286,605.809152 L46.5714286,602.725031 C47.6985179,603.917411 49.2550223,604.714286 50.8571429,604.714286 C50.9425223,604.714286 51.0128348,604.70842 51.0898438,604.705915 C51.3861607,605.220696 51.9352679,605.571429 52.5714286,605.571429 C53.5172991,605.571429 54.2857143,604.803013 54.2857143,603.857143 C54.2857143,602.910857 53.5172991,602.142857 52.5714286,602.142857 L52.5714286,602.142857 Z M45.7142857,608.142857 C45.2413571,608.142857 44.8571429,607.759487 44.8571429,607.285714 C44.8571429,606.812786 45.2413571,606.428571 45.7142857,606.428571 C46.1884732,606.428571 46.5714286,606.812786 46.5714286,607.285714 C46.5714286,607.759487 46.1884732,608.142857 45.7142857,608.142857 L45.7142857,608.142857 Z M45.7142857,599.571429 C45.2413571,599.571429 44.8571429,599.188473 44.8571429,598.714286 C44.8571429,598.240098 45.2413571,597.857143 45.7142857,597.857143 C46.1884732,597.857143 46.5714286,598.240098 46.5714286,598.714286 C46.5714286,599.188473 46.1884732,599.571429 45.7142857,599.571429 L45.7142857,599.571429 Z M52.5714286,604.714286 C52.0985,604.714286 51.7142857,604.330915 51.7142857,603.857143 C51.7142857,603.382955 52.0985,603 52.5714286,603 C53.0452009,603 53.4285714,603.382955 53.4285714,603.857143 C53.4285714,604.330915 53.0452009,604.714286 52.5714286,604.714286 L52.5714286,604.714286 Z" id="forks" sketch:type="MSShapeGroup"></path>
        </g>
    </g>
</svg>