<?xml version="1.0" encoding="UTF-8" standalone="no"?>
<svg width="12px" height="8px" viewBox="0 0 12 8" version="1.1" xmlns="http://www.w3.org/2000/svg" xmlns:xlink="http://www.w3.org/1999/xlink" xmlns:sketch="http://www.bohemiancoding.com/sketch/ns">
    <!-- Generator: Sketch 3.5.1 (25234) - http://www.bohemiancoding.com/sketch -->
    <title>watchers</title>
    <desc>Created with Sketch.</desc>
    <defs></defs>
    <g id="Page-1" stroke="none" stroke-width="1" fill="none" fill-rule="evenodd" sketch:type="MSPage">
        <g id="colors" sketch:type="MSArtboardGroup" transform="translate(-78.000000, -601.000000)" fill="#7D7D92">
            <path d="M83.8181818,601 C79.4545455,601 78,605.363636 78,605.363636 C78,605.363636 79.3863636,609 83.8181818,609 C88.25,609 89.6363636,605.363636 89.6363636,605.363636 C89.6363636,605.363636 88.1818182,601 83.8181818,601 L83.8181818,601 Z M83.8181818,608.272727 C80.1818182,608.272727 79.4545455,605.363636 79.4545455,605.363636 C79.4545455,605.363636 80.2045455,602.454545 83.8181818,602.454545 C87.4318182,602.454545 88.1818182,605.363636 88.1818182,605.363636 C88.1818182,605.363636 87.4545455,608.272727 83.8181818,608.272727 L83.8181818,608.272727 Z M83.8181818,603.181818 C83.5962386,603.181818 83.3870682,603.224784 83.1853636,603.28658 C83.5585909,603.459523 83.8181818,603.834875 83.8181818,604.272727 C83.8181818,604.875 83.3295455,605.363636 82.7272727,605.363636 C82.2894205,605.363636 81.9140682,605.104045 81.741125,604.730818 C81.6793295,604.932523 81.6363636,605.141693 81.6363636,605.363636 C81.6363636,606.568886 82.6136364,607.545455 83.8181818,607.545455 C85.0234318,607.545455 86,606.568886 86,605.363636 C86,604.159091 85.0234318,603.181818 83.8181818,603.181818 L83.8181818,603.181818 Z" id="watchers" sketch:type="MSShapeGroup"></path>
        </g>
    </g>
</svg>